<mxfile host="app.diagrams.net" agent="Mozilla/5.0 (Windows NT 10.0; Win64; x64) AppleWebKit/537.36 (KHTML, like Gecko) Chrome/130.0.0.0 Safari/537.36" version="24.8.2">
  <diagram name="Página-1" id="xyBPtCxU4HSo__L5TcGD">
    <mxGraphModel dx="964" dy="1954" grid="1" gridSize="8" guides="1" tooltips="1" connect="1" arrows="1" fold="1" page="1" pageScale="1" pageWidth="827" pageHeight="1169" math="0" shadow="0">
      <root>
        <mxCell id="0" />
        <mxCell id="1" parent="0" />
        <mxCell id="YUz2JsCg41odAJeU33cK-2" value="Hace" style="rhombus;whiteSpace=wrap;html=1;" vertex="1" parent="1">
          <mxGeometry x="608" y="112" width="96" height="96" as="geometry" />
        </mxCell>
        <mxCell id="YUz2JsCg41odAJeU33cK-4" value="Clientes" style="rounded=0;whiteSpace=wrap;html=1;" vertex="1" parent="1">
          <mxGeometry x="416" y="128" width="128" height="64" as="geometry" />
        </mxCell>
        <mxCell id="YUz2JsCg41odAJeU33cK-9" value="Nombre" style="ellipse;whiteSpace=wrap;html=1;" vertex="1" parent="1">
          <mxGeometry x="416" y="32" width="128" height="64" as="geometry" />
        </mxCell>
        <mxCell id="YUz2JsCg41odAJeU33cK-10" value="Teléfono" style="ellipse;whiteSpace=wrap;html=1;" vertex="1" parent="1">
          <mxGeometry x="256" y="128" width="128" height="64" as="geometry" />
        </mxCell>
        <mxCell id="YUz2JsCg41odAJeU33cK-11" value="Correo electrónico" style="ellipse;whiteSpace=wrap;html=1;" vertex="1" parent="1">
          <mxGeometry x="416" y="224" width="128" height="64" as="geometry" />
        </mxCell>
        <mxCell id="YUz2JsCg41odAJeU33cK-12" value="Reservación" style="rounded=0;whiteSpace=wrap;html=1;" vertex="1" parent="1">
          <mxGeometry x="768" y="128" width="128" height="64" as="geometry" />
        </mxCell>
        <mxCell id="YUz2JsCg41odAJeU33cK-13" value="Servicio" style="rounded=0;whiteSpace=wrap;html=1;" vertex="1" parent="1">
          <mxGeometry x="1472" y="128" width="128" height="64" as="geometry" />
        </mxCell>
        <mxCell id="YUz2JsCg41odAJeU33cK-14" value="Empleado" style="rounded=0;whiteSpace=wrap;html=1;" vertex="1" parent="1">
          <mxGeometry x="1120" y="-160" width="128" height="64" as="geometry" />
        </mxCell>
        <mxCell id="YUz2JsCg41odAJeU33cK-15" value="Paquete" style="rounded=0;whiteSpace=wrap;html=1;" vertex="1" parent="1">
          <mxGeometry x="1472" y="416" width="128" height="64" as="geometry" />
        </mxCell>
        <mxCell id="YUz2JsCg41odAJeU33cK-16" value="Fecha de reserva&amp;nbsp;" style="ellipse;whiteSpace=wrap;html=1;" vertex="1" parent="1">
          <mxGeometry x="768" y="32" width="128" height="64" as="geometry" />
        </mxCell>
        <mxCell id="YUz2JsCg41odAJeU33cK-17" value="Pago inicial" style="ellipse;whiteSpace=wrap;html=1;" vertex="1" parent="1">
          <mxGeometry x="768" y="224" width="128" height="64" as="geometry" />
        </mxCell>
        <mxCell id="YUz2JsCg41odAJeU33cK-18" value="Evento" style="rounded=0;whiteSpace=wrap;html=1;" vertex="1" parent="1">
          <mxGeometry x="1120" y="128" width="128" height="64" as="geometry" />
        </mxCell>
        <mxCell id="YUz2JsCg41odAJeU33cK-19" value="Tiene" style="rhombus;whiteSpace=wrap;html=1;" vertex="1" parent="1">
          <mxGeometry x="960" y="112" width="96" height="96" as="geometry" />
        </mxCell>
        <mxCell id="YUz2JsCg41odAJeU33cK-20" value="Incluye" style="rhombus;whiteSpace=wrap;html=1;" vertex="1" parent="1">
          <mxGeometry x="1312" y="112" width="96" height="96" as="geometry" />
        </mxCell>
        <mxCell id="YUz2JsCg41odAJeU33cK-21" value="Participa" style="rhombus;whiteSpace=wrap;html=1;" vertex="1" parent="1">
          <mxGeometry x="1136" y="-32" width="96" height="96" as="geometry" />
        </mxCell>
        <mxCell id="YUz2JsCg41odAJeU33cK-22" value="E&lt;span style=&quot;background-color: initial;&quot;&gt;stá en&lt;/span&gt;" style="rhombus;whiteSpace=wrap;html=1;" vertex="1" parent="1">
          <mxGeometry x="1488" y="256" width="96" height="96" as="geometry" />
        </mxCell>
        <mxCell id="YUz2JsCg41odAJeU33cK-23" value="Fecha" style="ellipse;whiteSpace=wrap;html=1;" vertex="1" parent="1">
          <mxGeometry x="992" y="256" width="128" height="64" as="geometry" />
        </mxCell>
        <mxCell id="YUz2JsCg41odAJeU33cK-24" value="Hora inicio" style="ellipse;whiteSpace=wrap;html=1;" vertex="1" parent="1">
          <mxGeometry x="1248" y="256" width="128" height="64" as="geometry" />
        </mxCell>
        <mxCell id="YUz2JsCg41odAJeU33cK-25" value="Hora final" style="ellipse;whiteSpace=wrap;html=1;" vertex="1" parent="1">
          <mxGeometry x="1120" y="416" width="128" height="64" as="geometry" />
        </mxCell>
        <mxCell id="YUz2JsCg41odAJeU33cK-26" value="Ubicación" style="ellipse;whiteSpace=wrap;html=1;" vertex="1" parent="1">
          <mxGeometry x="1216" y="352" width="128" height="64" as="geometry" />
        </mxCell>
        <mxCell id="YUz2JsCg41odAJeU33cK-27" value="Descripción" style="ellipse;whiteSpace=wrap;html=1;" vertex="1" parent="1">
          <mxGeometry x="1024" y="352" width="128" height="64" as="geometry" />
        </mxCell>
        <mxCell id="YUz2JsCg41odAJeU33cK-28" value="Nombre" style="ellipse;whiteSpace=wrap;html=1;" vertex="1" parent="1">
          <mxGeometry x="1056" y="-352" width="128" height="64" as="geometry" />
        </mxCell>
        <mxCell id="YUz2JsCg41odAJeU33cK-29" value="Apellido" style="ellipse;whiteSpace=wrap;html=1;" vertex="1" parent="1">
          <mxGeometry x="992" y="-256" width="128" height="64" as="geometry" />
        </mxCell>
        <mxCell id="YUz2JsCg41odAJeU33cK-30" value="Teléfono" style="ellipse;whiteSpace=wrap;html=1;" vertex="1" parent="1">
          <mxGeometry x="1248" y="-256" width="128" height="64" as="geometry" />
        </mxCell>
        <mxCell id="YUz2JsCg41odAJeU33cK-31" value="Correo electrónico" style="ellipse;whiteSpace=wrap;html=1;" vertex="1" parent="1">
          <mxGeometry x="1216" y="-352" width="128" height="64" as="geometry" />
        </mxCell>
        <mxCell id="YUz2JsCg41odAJeU33cK-32" value="Nombre servicio" style="ellipse;whiteSpace=wrap;html=1;" vertex="1" parent="1">
          <mxGeometry x="1568" y="32" width="128" height="64" as="geometry" />
        </mxCell>
        <mxCell id="YUz2JsCg41odAJeU33cK-33" value="Descripción" style="ellipse;whiteSpace=wrap;html=1;" vertex="1" parent="1">
          <mxGeometry x="1376" y="32" width="128" height="64" as="geometry" />
        </mxCell>
        <mxCell id="YUz2JsCg41odAJeU33cK-34" value="Costo" style="ellipse;whiteSpace=wrap;html=1;" vertex="1" parent="1">
          <mxGeometry x="1472" y="-64" width="128" height="64" as="geometry" />
        </mxCell>
        <mxCell id="YUz2JsCg41odAJeU33cK-35" value="Descripción" style="ellipse;whiteSpace=wrap;html=1;" vertex="1" parent="1">
          <mxGeometry x="1568" y="512" width="128" height="64" as="geometry" />
        </mxCell>
        <mxCell id="YUz2JsCg41odAJeU33cK-36" value="Costo" style="ellipse;whiteSpace=wrap;html=1;" vertex="1" parent="1">
          <mxGeometry x="1376" y="512" width="128" height="64" as="geometry" />
        </mxCell>
        <mxCell id="YUz2JsCg41odAJeU33cK-37" value="" style="endArrow=none;html=1;rounded=0;entryX=0;entryY=0.5;entryDx=0;entryDy=0;exitX=1;exitY=0.5;exitDx=0;exitDy=0;" edge="1" parent="1" source="YUz2JsCg41odAJeU33cK-10" target="YUz2JsCg41odAJeU33cK-4">
          <mxGeometry width="50" height="50" relative="1" as="geometry">
            <mxPoint x="344" y="82" as="sourcePoint" />
            <mxPoint x="394" y="32" as="targetPoint" />
          </mxGeometry>
        </mxCell>
        <mxCell id="YUz2JsCg41odAJeU33cK-38" value="" style="endArrow=none;html=1;rounded=0;entryX=0.5;entryY=0;entryDx=0;entryDy=0;exitX=0.5;exitY=1;exitDx=0;exitDy=0;" edge="1" parent="1" source="YUz2JsCg41odAJeU33cK-31" target="YUz2JsCg41odAJeU33cK-14">
          <mxGeometry width="50" height="50" relative="1" as="geometry">
            <mxPoint x="1176" y="-240.35" as="sourcePoint" />
            <mxPoint x="1288" y="-207.66000000000003" as="targetPoint" />
          </mxGeometry>
        </mxCell>
        <mxCell id="YUz2JsCg41odAJeU33cK-39" value="" style="endArrow=none;html=1;rounded=0;entryX=0.5;entryY=0;entryDx=0;entryDy=0;exitX=0.5;exitY=1;exitDx=0;exitDy=0;" edge="1" parent="1" source="YUz2JsCg41odAJeU33cK-9" target="YUz2JsCg41odAJeU33cK-4">
          <mxGeometry width="50" height="50" relative="1" as="geometry">
            <mxPoint x="376" y="103.31" as="sourcePoint" />
            <mxPoint x="488" y="136" as="targetPoint" />
          </mxGeometry>
        </mxCell>
        <mxCell id="YUz2JsCg41odAJeU33cK-40" value="" style="endArrow=none;html=1;rounded=0;entryX=0.5;entryY=1;entryDx=0;entryDy=0;exitX=0.5;exitY=0;exitDx=0;exitDy=0;" edge="1" parent="1" source="YUz2JsCg41odAJeU33cK-11" target="YUz2JsCg41odAJeU33cK-4">
          <mxGeometry width="50" height="50" relative="1" as="geometry">
            <mxPoint x="384" y="320" as="sourcePoint" />
            <mxPoint x="496" y="352.68999999999994" as="targetPoint" />
          </mxGeometry>
        </mxCell>
        <mxCell id="YUz2JsCg41odAJeU33cK-41" value="" style="endArrow=none;html=1;rounded=0;entryX=0;entryY=0.5;entryDx=0;entryDy=0;exitX=1;exitY=0.5;exitDx=0;exitDy=0;" edge="1" parent="1" source="YUz2JsCg41odAJeU33cK-4" target="YUz2JsCg41odAJeU33cK-2">
          <mxGeometry width="50" height="50" relative="1" as="geometry">
            <mxPoint x="608" y="39.650000000000006" as="sourcePoint" />
            <mxPoint x="720" y="72.33999999999999" as="targetPoint" />
          </mxGeometry>
        </mxCell>
        <mxCell id="YUz2JsCg41odAJeU33cK-42" value="" style="endArrow=none;html=1;rounded=0;entryX=0;entryY=0.5;entryDx=0;entryDy=0;exitX=1;exitY=0.5;exitDx=0;exitDy=0;" edge="1" parent="1" source="YUz2JsCg41odAJeU33cK-2" target="YUz2JsCg41odAJeU33cK-12">
          <mxGeometry width="50" height="50" relative="1" as="geometry">
            <mxPoint x="608" y="39.650000000000006" as="sourcePoint" />
            <mxPoint x="720" y="72.33999999999999" as="targetPoint" />
          </mxGeometry>
        </mxCell>
        <mxCell id="YUz2JsCg41odAJeU33cK-43" value="" style="endArrow=none;html=1;rounded=0;entryX=0.5;entryY=0;entryDx=0;entryDy=0;exitX=0.5;exitY=1;exitDx=0;exitDy=0;" edge="1" parent="1" source="YUz2JsCg41odAJeU33cK-16" target="YUz2JsCg41odAJeU33cK-12">
          <mxGeometry width="50" height="50" relative="1" as="geometry">
            <mxPoint x="904" y="15.310000000000002" as="sourcePoint" />
            <mxPoint x="1016" y="47.999999999999986" as="targetPoint" />
          </mxGeometry>
        </mxCell>
        <mxCell id="YUz2JsCg41odAJeU33cK-44" value="" style="endArrow=none;html=1;rounded=0;entryX=0.5;entryY=0;entryDx=0;entryDy=0;exitX=0.5;exitY=1;exitDx=0;exitDy=0;" edge="1" parent="1" source="YUz2JsCg41odAJeU33cK-12" target="YUz2JsCg41odAJeU33cK-17">
          <mxGeometry width="50" height="50" relative="1" as="geometry">
            <mxPoint x="680" y="287.31" as="sourcePoint" />
            <mxPoint x="792" y="320" as="targetPoint" />
          </mxGeometry>
        </mxCell>
        <mxCell id="YUz2JsCg41odAJeU33cK-45" value="" style="endArrow=none;html=1;rounded=0;entryX=0;entryY=0.5;entryDx=0;entryDy=0;exitX=1;exitY=0.5;exitDx=0;exitDy=0;" edge="1" parent="1" source="YUz2JsCg41odAJeU33cK-12" target="YUz2JsCg41odAJeU33cK-19">
          <mxGeometry width="50" height="50" relative="1" as="geometry">
            <mxPoint x="936" y="15.310000000000002" as="sourcePoint" />
            <mxPoint x="1048" y="47.999999999999986" as="targetPoint" />
          </mxGeometry>
        </mxCell>
        <mxCell id="YUz2JsCg41odAJeU33cK-46" value="" style="endArrow=none;html=1;rounded=0;entryX=0;entryY=0.5;entryDx=0;entryDy=0;exitX=1;exitY=0.5;exitDx=0;exitDy=0;" edge="1" parent="1" source="YUz2JsCg41odAJeU33cK-19" target="YUz2JsCg41odAJeU33cK-18">
          <mxGeometry width="50" height="50" relative="1" as="geometry">
            <mxPoint x="936" y="15.310000000000002" as="sourcePoint" />
            <mxPoint x="1048" y="47.999999999999986" as="targetPoint" />
          </mxGeometry>
        </mxCell>
        <mxCell id="YUz2JsCg41odAJeU33cK-47" value="" style="endArrow=none;html=1;rounded=0;entryX=0.5;entryY=0;entryDx=0;entryDy=0;exitX=0.5;exitY=1;exitDx=0;exitDy=0;" edge="1" parent="1" source="YUz2JsCg41odAJeU33cK-21" target="YUz2JsCg41odAJeU33cK-18">
          <mxGeometry width="50" height="50" relative="1" as="geometry">
            <mxPoint x="936" y="15.310000000000002" as="sourcePoint" />
            <mxPoint x="1048" y="47.999999999999986" as="targetPoint" />
          </mxGeometry>
        </mxCell>
        <mxCell id="YUz2JsCg41odAJeU33cK-48" value="" style="endArrow=none;html=1;rounded=0;entryX=0.5;entryY=0;entryDx=0;entryDy=0;exitX=0.5;exitY=1;exitDx=0;exitDy=0;" edge="1" parent="1" source="YUz2JsCg41odAJeU33cK-14" target="YUz2JsCg41odAJeU33cK-21">
          <mxGeometry width="50" height="50" relative="1" as="geometry">
            <mxPoint x="992" y="-96" as="sourcePoint" />
            <mxPoint x="1104" y="-63.31000000000002" as="targetPoint" />
          </mxGeometry>
        </mxCell>
        <mxCell id="YUz2JsCg41odAJeU33cK-49" value="" style="endArrow=none;html=1;rounded=0;entryX=0;entryY=0.5;entryDx=0;entryDy=0;" edge="1" parent="1" source="YUz2JsCg41odAJeU33cK-20" target="YUz2JsCg41odAJeU33cK-13">
          <mxGeometry width="50" height="50" relative="1" as="geometry">
            <mxPoint x="1408" y="160" as="sourcePoint" />
            <mxPoint x="1480" y="400.35" as="targetPoint" />
          </mxGeometry>
        </mxCell>
        <mxCell id="YUz2JsCg41odAJeU33cK-50" value="" style="endArrow=none;html=1;rounded=0;entryX=0.5;entryY=0;entryDx=0;entryDy=0;exitX=0.5;exitY=1;exitDx=0;exitDy=0;" edge="1" parent="1" source="YUz2JsCg41odAJeU33cK-28" target="YUz2JsCg41odAJeU33cK-14">
          <mxGeometry width="50" height="50" relative="1" as="geometry">
            <mxPoint x="1144" y="-232" as="sourcePoint" />
            <mxPoint x="1256" y="-199.31" as="targetPoint" />
          </mxGeometry>
        </mxCell>
        <mxCell id="YUz2JsCg41odAJeU33cK-51" value="" style="endArrow=none;html=1;rounded=0;entryX=0;entryY=0;entryDx=0;entryDy=0;exitX=0.5;exitY=1;exitDx=0;exitDy=0;" edge="1" parent="1" source="YUz2JsCg41odAJeU33cK-29" target="YUz2JsCg41odAJeU33cK-14">
          <mxGeometry width="50" height="50" relative="1" as="geometry">
            <mxPoint x="984" y="-136.35" as="sourcePoint" />
            <mxPoint x="1096" y="-103.66000000000001" as="targetPoint" />
          </mxGeometry>
        </mxCell>
        <mxCell id="YUz2JsCg41odAJeU33cK-52" value="" style="endArrow=none;html=1;rounded=0;entryX=1;entryY=0;entryDx=0;entryDy=0;exitX=0.5;exitY=1;exitDx=0;exitDy=0;" edge="1" parent="1" source="YUz2JsCg41odAJeU33cK-30" target="YUz2JsCg41odAJeU33cK-14">
          <mxGeometry width="50" height="50" relative="1" as="geometry">
            <mxPoint x="1312" y="-192" as="sourcePoint" />
            <mxPoint x="1384" y="-87.31" as="targetPoint" />
          </mxGeometry>
        </mxCell>
        <mxCell id="YUz2JsCg41odAJeU33cK-53" value="" style="endArrow=none;html=1;rounded=0;entryX=0;entryY=0.5;entryDx=0;entryDy=0;exitX=1;exitY=0.5;exitDx=0;exitDy=0;" edge="1" parent="1" source="YUz2JsCg41odAJeU33cK-18" target="YUz2JsCg41odAJeU33cK-20">
          <mxGeometry width="50" height="50" relative="1" as="geometry">
            <mxPoint x="1264" y="192" as="sourcePoint" />
            <mxPoint x="1376" y="224.69" as="targetPoint" />
          </mxGeometry>
        </mxCell>
        <mxCell id="YUz2JsCg41odAJeU33cK-54" value="" style="endArrow=none;html=1;rounded=0;entryX=0.5;entryY=0;entryDx=0;entryDy=0;exitX=0.5;exitY=1;exitDx=0;exitDy=0;" edge="1" parent="1" source="YUz2JsCg41odAJeU33cK-18" target="YUz2JsCg41odAJeU33cK-25">
          <mxGeometry width="50" height="50" relative="1" as="geometry">
            <mxPoint x="1129" y="239.66000000000003" as="sourcePoint" />
            <mxPoint x="1241" y="272.3500000000001" as="targetPoint" />
          </mxGeometry>
        </mxCell>
        <mxCell id="YUz2JsCg41odAJeU33cK-55" value="" style="endArrow=none;html=1;rounded=0;exitX=0;exitY=1;exitDx=0;exitDy=0;entryX=0.5;entryY=0;entryDx=0;entryDy=0;" edge="1" parent="1" source="YUz2JsCg41odAJeU33cK-18" target="YUz2JsCg41odAJeU33cK-23">
          <mxGeometry width="50" height="50" relative="1" as="geometry">
            <mxPoint x="1080" y="232" as="sourcePoint" />
            <mxPoint x="1120" y="248" as="targetPoint" />
          </mxGeometry>
        </mxCell>
        <mxCell id="YUz2JsCg41odAJeU33cK-56" value="" style="endArrow=none;html=1;rounded=0;entryX=0.5;entryY=0;entryDx=0;entryDy=0;exitX=1;exitY=1;exitDx=0;exitDy=0;" edge="1" parent="1" source="YUz2JsCg41odAJeU33cK-18" target="YUz2JsCg41odAJeU33cK-24">
          <mxGeometry width="50" height="50" relative="1" as="geometry">
            <mxPoint x="1184" y="271.65" as="sourcePoint" />
            <mxPoint x="1296" y="304.34000000000003" as="targetPoint" />
          </mxGeometry>
        </mxCell>
        <mxCell id="YUz2JsCg41odAJeU33cK-57" value="" style="endArrow=none;html=1;rounded=0;entryX=1;entryY=0.5;entryDx=0;entryDy=0;" edge="1" parent="1" target="YUz2JsCg41odAJeU33cK-27">
          <mxGeometry width="50" height="50" relative="1" as="geometry">
            <mxPoint x="1184" y="192" as="sourcePoint" />
            <mxPoint x="1096" y="288" as="targetPoint" />
          </mxGeometry>
        </mxCell>
        <mxCell id="YUz2JsCg41odAJeU33cK-58" value="" style="endArrow=none;html=1;rounded=0;exitX=0.5;exitY=1;exitDx=0;exitDy=0;entryX=0;entryY=0.5;entryDx=0;entryDy=0;" edge="1" parent="1" source="YUz2JsCg41odAJeU33cK-18" target="YUz2JsCg41odAJeU33cK-26">
          <mxGeometry width="50" height="50" relative="1" as="geometry">
            <mxPoint x="1136" y="208" as="sourcePoint" />
            <mxPoint x="1072" y="272" as="targetPoint" />
          </mxGeometry>
        </mxCell>
        <mxCell id="YUz2JsCg41odAJeU33cK-59" value="" style="endArrow=none;html=1;rounded=0;entryX=0.5;entryY=1;entryDx=0;entryDy=0;exitX=1;exitY=0;exitDx=0;exitDy=0;" edge="1" parent="1" source="YUz2JsCg41odAJeU33cK-13" target="YUz2JsCg41odAJeU33cK-32">
          <mxGeometry width="50" height="50" relative="1" as="geometry">
            <mxPoint x="1656" y="184" as="sourcePoint" />
            <mxPoint x="1720" y="184" as="targetPoint" />
          </mxGeometry>
        </mxCell>
        <mxCell id="YUz2JsCg41odAJeU33cK-60" value="" style="endArrow=none;html=1;rounded=0;entryX=0.5;entryY=1;entryDx=0;entryDy=0;exitX=0;exitY=0;exitDx=0;exitDy=0;" edge="1" parent="1" source="YUz2JsCg41odAJeU33cK-13" target="YUz2JsCg41odAJeU33cK-33">
          <mxGeometry width="50" height="50" relative="1" as="geometry">
            <mxPoint x="1608" y="136" as="sourcePoint" />
            <mxPoint x="1640" y="104" as="targetPoint" />
          </mxGeometry>
        </mxCell>
        <mxCell id="YUz2JsCg41odAJeU33cK-61" value="" style="endArrow=none;html=1;rounded=0;entryX=0.5;entryY=1;entryDx=0;entryDy=0;exitX=0.5;exitY=0;exitDx=0;exitDy=0;" edge="1" parent="1" source="YUz2JsCg41odAJeU33cK-13" target="YUz2JsCg41odAJeU33cK-34">
          <mxGeometry width="50" height="50" relative="1" as="geometry">
            <mxPoint x="1528" y="112" as="sourcePoint" />
            <mxPoint x="1560" y="80" as="targetPoint" />
          </mxGeometry>
        </mxCell>
        <mxCell id="YUz2JsCg41odAJeU33cK-62" value="" style="endArrow=none;html=1;rounded=0;entryX=0.5;entryY=1;entryDx=0;entryDy=0;exitX=0.5;exitY=0;exitDx=0;exitDy=0;" edge="1" parent="1" source="YUz2JsCg41odAJeU33cK-22" target="YUz2JsCg41odAJeU33cK-13">
          <mxGeometry width="50" height="50" relative="1" as="geometry">
            <mxPoint x="1664" y="344" as="sourcePoint" />
            <mxPoint x="1664" y="216" as="targetPoint" />
          </mxGeometry>
        </mxCell>
        <mxCell id="YUz2JsCg41odAJeU33cK-63" value="" style="endArrow=none;html=1;rounded=0;entryX=0.5;entryY=1;entryDx=0;entryDy=0;exitX=0.5;exitY=0;exitDx=0;exitDy=0;" edge="1" parent="1" source="YUz2JsCg41odAJeU33cK-15" target="YUz2JsCg41odAJeU33cK-22">
          <mxGeometry width="50" height="50" relative="1" as="geometry">
            <mxPoint x="1680" y="376" as="sourcePoint" />
            <mxPoint x="1680" y="248" as="targetPoint" />
          </mxGeometry>
        </mxCell>
        <mxCell id="YUz2JsCg41odAJeU33cK-64" value="" style="endArrow=none;html=1;rounded=0;entryX=0.5;entryY=1;entryDx=0;entryDy=0;exitX=0.5;exitY=0;exitDx=0;exitDy=0;" edge="1" parent="1" source="YUz2JsCg41odAJeU33cK-36" target="YUz2JsCg41odAJeU33cK-15">
          <mxGeometry width="50" height="50" relative="1" as="geometry">
            <mxPoint x="1640" y="528" as="sourcePoint" />
            <mxPoint x="1640" y="496" as="targetPoint" />
          </mxGeometry>
        </mxCell>
        <mxCell id="YUz2JsCg41odAJeU33cK-65" value="" style="endArrow=none;html=1;rounded=0;entryX=0.5;entryY=1;entryDx=0;entryDy=0;exitX=0.5;exitY=0;exitDx=0;exitDy=0;" edge="1" parent="1" source="YUz2JsCg41odAJeU33cK-35" target="YUz2JsCg41odAJeU33cK-15">
          <mxGeometry width="50" height="50" relative="1" as="geometry">
            <mxPoint x="1656" y="464" as="sourcePoint" />
            <mxPoint x="1544" y="488" as="targetPoint" />
          </mxGeometry>
        </mxCell>
      </root>
    </mxGraphModel>
  </diagram>
</mxfile>
